<mxfile host="app.diagrams.net" agent="Mozilla/5.0 (Windows NT 10.0; Win64; x64) AppleWebKit/537.36 (KHTML, like Gecko) Chrome/138.0.0.0 Safari/537.36 Edg/138.0.0.0" version="28.2.1">
  <diagram name="第 1 页" id="2sRzy5rBmnBKjg-dtoLG">
    <mxGraphModel dx="682" dy="398" grid="1" gridSize="10" guides="1" tooltips="1" connect="1" arrows="1" fold="1" page="1" pageScale="1" pageWidth="827" pageHeight="1169" math="0" shadow="0">
      <root>
        <mxCell id="0" />
        <mxCell id="1" parent="0" />
        <mxCell id="vBWDWhTqrg1nWm1vIP58-36" value="" style="rounded=0;whiteSpace=wrap;html=1;dashed=1;dashPattern=8 8;fillColor=#f5f5f5;fontColor=#333333;strokeColor=#666666;" vertex="1" parent="1">
          <mxGeometry x="20" y="80" width="460" height="260" as="geometry" />
        </mxCell>
        <mxCell id="vBWDWhTqrg1nWm1vIP58-33" value="" style="rounded=0;whiteSpace=wrap;html=1;dashed=1;dashPattern=12 12;fillColor=#e1d5e7;strokeColor=#9673a6;" vertex="1" parent="1">
          <mxGeometry x="260" y="90" width="200" height="130" as="geometry" />
        </mxCell>
        <mxCell id="vBWDWhTqrg1nWm1vIP58-18" value="&lt;font face=&quot;Times New Roman&quot; style=&quot;font-size: 4px;&quot;&gt;&lt;b style=&quot;&quot;&gt;error&amp;gt;0&lt;/b&gt;&lt;/font&gt;" style="text;html=1;align=center;verticalAlign=middle;whiteSpace=wrap;rounded=0;" vertex="1" parent="1">
          <mxGeometry x="720" y="480" width="60" height="30" as="geometry" />
        </mxCell>
        <mxCell id="vBWDWhTqrg1nWm1vIP58-20" value="&lt;font face=&quot;Times New Roman&quot; style=&quot;font-size: 4px;&quot;&gt;&lt;b&gt;error&amp;lt;0&lt;/b&gt;&lt;/font&gt;" style="text;html=1;align=center;verticalAlign=middle;whiteSpace=wrap;rounded=0;" vertex="1" parent="1">
          <mxGeometry x="720" y="500" width="60" height="30" as="geometry" />
        </mxCell>
        <mxCell id="vBWDWhTqrg1nWm1vIP58-4" value="&lt;font face=&quot;Times New Roman&quot; style=&quot;font-size: 7px;&quot;&gt;&lt;b style=&quot;&quot;&gt;FEEDBACK_FORWARD&lt;/b&gt;&lt;/font&gt;" style="rounded=0;whiteSpace=wrap;html=1;" vertex="1" parent="1">
          <mxGeometry x="630" y="440" width="90" height="20" as="geometry" />
        </mxCell>
        <mxCell id="vBWDWhTqrg1nWm1vIP58-5" value="&lt;font face=&quot;Times New Roman&quot; style=&quot;font-size: 7px;&quot;&gt;&lt;b style=&quot;&quot;&gt;FEEDBACK_BACKWARD&lt;/b&gt;&lt;/font&gt;" style="rounded=0;whiteSpace=wrap;html=1;" vertex="1" parent="1">
          <mxGeometry x="630" y="460" width="90" height="20" as="geometry" />
        </mxCell>
        <mxCell id="vBWDWhTqrg1nWm1vIP58-6" value="&lt;font face=&quot;Times New Roman&quot; style=&quot;font-size: 7px;&quot;&gt;&lt;b style=&quot;&quot;&gt;FEEDBACK_TURN_LEFT&lt;/b&gt;&lt;/font&gt;" style="rounded=0;whiteSpace=wrap;html=1;" vertex="1" parent="1">
          <mxGeometry x="630" y="490" width="90" height="20" as="geometry" />
        </mxCell>
        <mxCell id="vBWDWhTqrg1nWm1vIP58-8" value="&lt;font face=&quot;Times New Roman&quot; style=&quot;font-size: 7px;&quot;&gt;&lt;b style=&quot;&quot;&gt;FEEDBACK_TURN_RIGHT&lt;/b&gt;&lt;/font&gt;" style="rounded=0;whiteSpace=wrap;html=1;" vertex="1" parent="1">
          <mxGeometry x="630" y="510" width="90" height="20" as="geometry" />
        </mxCell>
        <mxCell id="vBWDWhTqrg1nWm1vIP58-12" value="&lt;font style=&quot;font-size: 4px;&quot; face=&quot;Times New Roman&quot;&gt;&lt;b style=&quot;line-height: 470%;&quot;&gt;fabs(error)&amp;gt;yawThreshold&lt;/b&gt;&lt;/font&gt;" style="rhombus;whiteSpace=wrap;html=1;align=center;" vertex="1" parent="1">
          <mxGeometry x="740" y="440" width="60" height="40" as="geometry" />
        </mxCell>
        <mxCell id="vBWDWhTqrg1nWm1vIP58-13" value="" style="endArrow=blockThin;html=1;rounded=0;exitX=0.5;exitY=1;exitDx=0;exitDy=0;endFill=1;entryX=1;entryY=0.5;entryDx=0;entryDy=0;" edge="1" parent="1" source="vBWDWhTqrg1nWm1vIP58-12" target="vBWDWhTqrg1nWm1vIP58-6">
          <mxGeometry width="50" height="50" relative="1" as="geometry">
            <mxPoint x="790" y="540" as="sourcePoint" />
            <mxPoint x="770" y="500" as="targetPoint" />
            <Array as="points">
              <mxPoint x="770" y="500" />
            </Array>
          </mxGeometry>
        </mxCell>
        <mxCell id="vBWDWhTqrg1nWm1vIP58-14" value="" style="endArrow=blockThin;html=1;rounded=0;endFill=1;entryX=1;entryY=0.5;entryDx=0;entryDy=0;" edge="1" parent="1" target="vBWDWhTqrg1nWm1vIP58-8">
          <mxGeometry width="50" height="50" relative="1" as="geometry">
            <mxPoint x="770" y="500" as="sourcePoint" />
            <mxPoint x="800" y="560" as="targetPoint" />
            <Array as="points">
              <mxPoint x="770" y="520" />
            </Array>
          </mxGeometry>
        </mxCell>
        <mxCell id="vBWDWhTqrg1nWm1vIP58-16" value="" style="endArrow=blockThin;html=1;rounded=0;endFill=1;exitX=1;exitY=0;exitDx=0;exitDy=0;entryX=0.5;entryY=0;entryDx=0;entryDy=0;" edge="1" parent="1" source="vBWDWhTqrg1nWm1vIP58-5" target="vBWDWhTqrg1nWm1vIP58-12">
          <mxGeometry width="50" height="50" relative="1" as="geometry">
            <mxPoint x="740" y="440" as="sourcePoint" />
            <mxPoint x="790" y="390" as="targetPoint" />
            <Array as="points">
              <mxPoint x="730" y="460" />
              <mxPoint x="730" y="440" />
              <mxPoint x="730" y="420" />
              <mxPoint x="770" y="420" />
            </Array>
          </mxGeometry>
        </mxCell>
        <mxCell id="vBWDWhTqrg1nWm1vIP58-17" value="" style="endArrow=blockThin;html=1;rounded=0;exitX=1;exitY=0.5;exitDx=0;exitDy=0;endFill=1;entryX=0;entryY=1;entryDx=0;entryDy=0;" edge="1" parent="1" source="vBWDWhTqrg1nWm1vIP58-12" target="vBWDWhTqrg1nWm1vIP58-4">
          <mxGeometry width="50" height="50" relative="1" as="geometry">
            <mxPoint x="790" y="560" as="sourcePoint" />
            <mxPoint x="806.719970703125" y="400" as="targetPoint" />
            <Array as="points">
              <mxPoint x="800" y="410" />
              <mxPoint x="700" y="410" />
              <mxPoint x="600" y="410" />
              <mxPoint x="600" y="460" />
            </Array>
          </mxGeometry>
        </mxCell>
        <mxCell id="vBWDWhTqrg1nWm1vIP58-21" value="&lt;font style=&quot;font-size: 4px;&quot; face=&quot;Times New Roman&quot;&gt;&lt;b style=&quot;line-height: 470%;&quot;&gt;fabs(error)&amp;lt;yawThreshold&lt;/b&gt;&lt;/font&gt;" style="rhombus;whiteSpace=wrap;html=1;align=center;" vertex="1" parent="1">
          <mxGeometry x="650" y="550" width="60" height="40" as="geometry" />
        </mxCell>
        <mxCell id="vBWDWhTqrg1nWm1vIP58-23" value="" style="endArrow=blockThin;html=1;rounded=0;endFill=1;entryX=0.5;entryY=0;entryDx=0;entryDy=0;exitX=0;exitY=0;exitDx=0;exitDy=0;" edge="1" parent="1" source="vBWDWhTqrg1nWm1vIP58-8" target="vBWDWhTqrg1nWm1vIP58-21">
          <mxGeometry width="50" height="50" relative="1" as="geometry">
            <mxPoint x="600" y="540" as="sourcePoint" />
            <mxPoint x="620" y="530" as="targetPoint" />
            <Array as="points">
              <mxPoint x="600" y="510" />
              <mxPoint x="600" y="540" />
              <mxPoint x="680" y="540" />
            </Array>
          </mxGeometry>
        </mxCell>
        <mxCell id="vBWDWhTqrg1nWm1vIP58-24" value="" style="endArrow=blockThin;html=1;rounded=0;endFill=1;exitX=0.5;exitY=1;exitDx=0;exitDy=0;" edge="1" parent="1" source="vBWDWhTqrg1nWm1vIP58-21">
          <mxGeometry width="50" height="50" relative="1" as="geometry">
            <mxPoint x="740" y="600" as="sourcePoint" />
            <mxPoint x="630" y="460" as="targetPoint" />
            <Array as="points">
              <mxPoint x="680" y="600" />
              <mxPoint x="590" y="600" />
              <mxPoint x="590" y="460" />
            </Array>
          </mxGeometry>
        </mxCell>
        <mxCell id="vBWDWhTqrg1nWm1vIP58-27" value="" style="endArrow=blockThin;html=1;rounded=0;endFill=1;exitX=1;exitY=0.5;exitDx=0;exitDy=0;" edge="1" parent="1" source="vBWDWhTqrg1nWm1vIP58-21">
          <mxGeometry width="50" height="50" relative="1" as="geometry">
            <mxPoint x="770" y="620" as="sourcePoint" />
            <mxPoint x="770" y="490" as="targetPoint" />
            <Array as="points">
              <mxPoint x="800" y="570" />
              <mxPoint x="800" y="490" />
            </Array>
          </mxGeometry>
        </mxCell>
        <mxCell id="vBWDWhTqrg1nWm1vIP58-30" value="相位偏移处理&lt;div&gt;&lt;br&gt;&lt;/div&gt;" style="rounded=0;whiteSpace=wrap;html=1;" vertex="1" parent="1">
          <mxGeometry x="280" y="120" width="70" height="80" as="geometry" />
        </mxCell>
        <mxCell id="vBWDWhTqrg1nWm1vIP58-31" value="独立线圈状态执行&lt;div&gt;&lt;br&gt;&lt;/div&gt;" style="rounded=0;whiteSpace=wrap;html=1;" vertex="1" parent="1">
          <mxGeometry x="370" y="120" width="70" height="80" as="geometry" />
        </mxCell>
        <mxCell id="vBWDWhTqrg1nWm1vIP58-38" style="edgeStyle=orthogonalEdgeStyle;rounded=0;orthogonalLoop=1;jettySize=auto;html=1;exitX=0.5;exitY=0;exitDx=0;exitDy=0;entryX=0.5;entryY=1;entryDx=0;entryDy=0;endArrow=blockThin;endFill=1;" edge="1" parent="1" source="vBWDWhTqrg1nWm1vIP58-32" target="vBWDWhTqrg1nWm1vIP58-33">
          <mxGeometry relative="1" as="geometry" />
        </mxCell>
        <mxCell id="vBWDWhTqrg1nWm1vIP58-32" value="运动模式全局状态机&lt;div&gt;(开环)&lt;/div&gt;" style="rounded=0;whiteSpace=wrap;html=1;" vertex="1" parent="1">
          <mxGeometry x="325" y="250" width="70" height="80" as="geometry" />
        </mxCell>
        <mxCell id="vBWDWhTqrg1nWm1vIP58-34" value="&lt;b&gt;&lt;font face=&quot;宋体&quot;&gt;底层执行器&lt;/font&gt;&lt;/b&gt;" style="text;html=1;align=center;verticalAlign=middle;whiteSpace=wrap;rounded=0;" vertex="1" parent="1">
          <mxGeometry x="320" y="90" width="70" height="30" as="geometry" />
        </mxCell>
        <mxCell id="vBWDWhTqrg1nWm1vIP58-37" style="edgeStyle=orthogonalEdgeStyle;rounded=0;orthogonalLoop=1;jettySize=auto;html=1;exitX=0.5;exitY=0;exitDx=0;exitDy=0;entryX=0.5;entryY=1;entryDx=0;entryDy=0;endArrow=blockThin;endFill=1;" edge="1" parent="1" source="vBWDWhTqrg1nWm1vIP58-35" target="vBWDWhTqrg1nWm1vIP58-32">
          <mxGeometry relative="1" as="geometry" />
        </mxCell>
        <mxCell id="vBWDWhTqrg1nWm1vIP58-35" value="外部接口" style="rounded=0;whiteSpace=wrap;html=1;" vertex="1" parent="1">
          <mxGeometry x="325" y="360" width="70" height="30" as="geometry" />
        </mxCell>
        <mxCell id="vBWDWhTqrg1nWm1vIP58-41" value="" style="endArrow=blockThin;html=1;rounded=0;exitX=1;exitY=0.5;exitDx=0;exitDy=0;endFill=1;entryX=0;entryY=0.5;entryDx=0;entryDy=0;" edge="1" parent="1" source="vBWDWhTqrg1nWm1vIP58-30" target="vBWDWhTqrg1nWm1vIP58-31">
          <mxGeometry width="50" height="50" relative="1" as="geometry">
            <mxPoint x="520" y="180" as="sourcePoint" />
            <mxPoint x="570" y="130" as="targetPoint" />
          </mxGeometry>
        </mxCell>
        <mxCell id="vBWDWhTqrg1nWm1vIP58-43" value="" style="rounded=0;whiteSpace=wrap;html=1;dashed=1;dashPattern=12 12;fillColor=#d5e8d4;strokeColor=#82b366;" vertex="1" parent="1">
          <mxGeometry x="30" y="90" width="210" height="130" as="geometry" />
        </mxCell>
        <mxCell id="vBWDWhTqrg1nWm1vIP58-39" style="edgeStyle=orthogonalEdgeStyle;rounded=0;orthogonalLoop=1;jettySize=auto;html=1;exitX=1;exitY=0.5;exitDx=0;exitDy=0;endArrow=blockThin;endFill=1;" edge="1" parent="1" source="vBWDWhTqrg1nWm1vIP58-1" target="vBWDWhTqrg1nWm1vIP58-28">
          <mxGeometry relative="1" as="geometry" />
        </mxCell>
        <mxCell id="vBWDWhTqrg1nWm1vIP58-1" value="&lt;font face=&quot;Times New Roman&quot;&gt;BMX160定期数据采集&lt;/font&gt;" style="rounded=0;whiteSpace=wrap;html=1;" vertex="1" parent="1">
          <mxGeometry x="40" y="120" width="70" height="80" as="geometry" />
        </mxCell>
        <mxCell id="vBWDWhTqrg1nWm1vIP58-28" value="反馈状态机" style="rounded=0;whiteSpace=wrap;html=1;" vertex="1" parent="1">
          <mxGeometry x="160" y="120" width="70" height="80" as="geometry" />
        </mxCell>
        <mxCell id="vBWDWhTqrg1nWm1vIP58-42" style="edgeStyle=orthogonalEdgeStyle;rounded=0;orthogonalLoop=1;jettySize=auto;html=1;exitX=0.5;exitY=1;exitDx=0;exitDy=0;entryX=0;entryY=0.5;entryDx=0;entryDy=0;endArrow=blockThin;endFill=1;" edge="1" parent="1" source="vBWDWhTqrg1nWm1vIP58-28" target="vBWDWhTqrg1nWm1vIP58-32">
          <mxGeometry relative="1" as="geometry" />
        </mxCell>
        <mxCell id="vBWDWhTqrg1nWm1vIP58-44" style="edgeStyle=orthogonalEdgeStyle;rounded=0;orthogonalLoop=1;jettySize=auto;html=1;exitX=0;exitY=0.5;exitDx=0;exitDy=0;entryX=0.5;entryY=1;entryDx=0;entryDy=0;endArrow=blockThin;endFill=1;" edge="1" parent="1" source="vBWDWhTqrg1nWm1vIP58-35" target="vBWDWhTqrg1nWm1vIP58-1">
          <mxGeometry relative="1" as="geometry" />
        </mxCell>
        <mxCell id="vBWDWhTqrg1nWm1vIP58-45" value="&lt;b&gt;&lt;font face=&quot;宋体&quot;&gt;闭环执行&lt;/font&gt;&lt;/b&gt;" style="text;html=1;align=center;verticalAlign=middle;whiteSpace=wrap;rounded=0;" vertex="1" parent="1">
          <mxGeometry x="100" y="90" width="70" height="30" as="geometry" />
        </mxCell>
      </root>
    </mxGraphModel>
  </diagram>
</mxfile>
